<svg width="24" height="24" viewBox="0 0 24 24" fill="none" xmlns="http://www.w3.org/2000/svg">
<path fill-rule="evenodd" clip-rule="evenodd" d="M6.02008 8.69663C5.73864 5.47794 8.45041 2.625 12 2.625C15.5106 2.625 18.2015 5.41554 17.9881 8.59051C17.9498 9.16073 17.7526 9.69227 17.5502 10.1654L15.0899 15.9175V18.3921C15.0899 18.9602 14.6946 19.4418 14.1479 19.6082C13.9637 20.6116 13.0312 21.375 11.9084 21.375C10.7857 21.375 9.85312 20.6116 9.66897 19.6082C9.12222 19.4418 8.72697 18.9602 8.72697 18.3921V15.9125L6.39217 10.0707C6.22617 9.6553 6.06337 9.19181 6.02008 8.69663ZM9.63596 16.2614V18.3921C9.63596 18.6274 9.83944 18.8182 10.0904 18.8182H13.7264C13.9774 18.8182 14.1809 18.6274 14.1809 18.3921V16.2614H9.63596ZM14.328 15.4091L16.7066 9.84817C16.9015 9.39249 17.0521 8.96543 17.0809 8.5369C17.2619 5.84445 14.9773 3.47727 12 3.47727C8.98949 3.47727 6.68736 5.8975 6.92602 8.62699C6.95859 8.99944 7.08355 9.37175 7.24336 9.77159L9.49651 15.4091H14.328ZM10.6225 19.6704C10.8097 20.167 11.3148 20.5227 11.9084 20.5227C12.5021 20.5227 13.0071 20.167 13.1943 19.6704H10.6225ZM12.4109 4.56511C12.5232 4.3546 12.7962 4.26928 13.0207 4.37453C14.2887 4.96898 15.3169 5.93302 15.9509 7.12192C16.0631 7.33243 15.9721 7.5884 15.7476 7.69365C15.5231 7.7989 15.2501 7.71357 15.1379 7.50308C14.5918 6.4791 13.7063 5.64881 12.6142 5.13683C12.3896 5.03158 12.2986 4.77561 12.4109 4.56511Z" fill="#333333"/>
</svg>
