<svg width="24" height="24" viewBox="0 0 24 24" fill="none" xmlns="http://www.w3.org/2000/svg">
<path fill-rule="evenodd" clip-rule="evenodd" d="M18.75 11.7712H19.65C19.8512 11.7712 19.9957 11.7644 20.1 11.7531V11.5248C20.1 11.4797 20.0804 11.4364 20.0454 11.4045L13.591 5.92318C12.7123 5.12106 11.2877 5.12106 10.409 5.92318L9.77262 5.34223C11.0028 4.21926 12.9972 4.21926 14.2274 5.34223L20.6818 10.8235C20.8855 11.0095 21 11.2617 21 11.5248V11.7654C21 12.4348 20.6818 12.5928 19.65 12.5928V17.8568C19.65 18.7643 18.8441 19.5 17.85 19.5H13.35V15.3921C13.35 14.9383 12.9471 14.5704 12.45 14.5704H11.55C11.0529 14.5704 10.65 14.9383 10.65 15.3921V19.5H6.15C5.15589 19.5 4.35 18.7643 4.35 17.8568V12.5928C3.3182 12.5928 3 12.4348 3 11.7654V11.5248C3 11.2617 3.11446 11.0095 3.3182 10.8235L9.77262 5.34223L10.409 5.92318L3.95459 11.4045C3.91964 11.4364 3.9 11.4797 3.9 11.5248V11.7531C4.00428 11.7644 4.14876 11.7712 4.35 11.7712H5.25V17.8568C5.25 18.3106 5.65294 18.6784 6.15 18.6784H9.75V15.3921C9.75 14.4846 10.5559 13.7489 11.55 13.7489H12.45C13.4441 13.7489 14.25 14.4846 14.25 15.3921V18.6784H17.85C18.3471 18.6784 18.75 18.3106 18.75 17.8568V11.7712Z" fill="#333333"/>
</svg>