<svg width="20" height="20" viewBox="0 0 20 20" fill="none" xmlns="http://www.w3.org/2000/svg">
<path fill-rule="evenodd" clip-rule="evenodd" d="M14.2797 15.7442C15.2406 15.1571 15.8335 14.2586 15.8335 12.8333C15.8335 11.4207 15.0385 9.98082 13.8348 8.86383C12.625 7.74108 11.1513 7.08333 10.0002 7.08333C8.84907 7.08333 7.37529 7.74108 6.16548 8.86383C4.96187 9.98082 4.16683 11.4207 4.16683 12.8333C4.16683 14.2586 4.75969 15.1571 5.72059 15.7442C6.73932 16.3666 8.22833 16.6667 10.0002 16.6667C11.772 16.6667 13.261 16.3666 14.2797 15.7442ZM10.0002 17.5C13.6821 17.5 16.6668 16.2698 16.6668 12.8333C16.6668 9.39689 12.8487 6.25 10.0002 6.25C7.1516 6.25 3.3335 9.39689 3.3335 12.8333C3.3335 16.2698 6.31826 17.5 10.0002 17.5Z" fill="#333333"/>
<path fill-rule="evenodd" clip-rule="evenodd" d="M6.44609 4.4101L8.10202 6.25002H11.8975L13.5535 4.4101C13.4564 4.35448 13.3321 4.29211 13.1759 4.22848C12.611 3.99836 11.6248 3.75002 9.99978 3.75002C8.37476 3.75002 7.38852 3.99836 6.82365 4.22848C6.66747 4.29211 6.54316 4.35448 6.44609 4.4101ZM14.1664 4.35187C14.4889 4.08802 14.4887 4.08771 14.4884 4.08739L14.4879 4.08674L14.4867 4.08537L14.4842 4.08236L14.4782 4.07529C14.4737 4.07012 14.4682 4.06404 14.4618 4.05713C14.449 4.04329 14.4322 4.02612 14.4112 4.00612C14.3691 3.9661 14.3099 3.91495 14.2306 3.85673C14.0716 3.74013 13.8331 3.59638 13.4903 3.45674C12.8052 3.17761 11.7081 2.91669 9.99978 2.91669C8.29147 2.91669 7.19438 3.17761 6.50924 3.45674C6.1665 3.59638 5.928 3.74013 5.769 3.85673C5.68961 3.91495 5.63046 3.9661 5.58835 4.00612C5.56732 4.02612 5.55059 4.04329 5.53776 4.05713C5.53134 4.06404 5.52591 4.07012 5.52141 4.07529L5.51534 4.08236L5.51282 4.08537L5.51168 4.08674L5.51115 4.08739C5.51089 4.08771 5.51063 4.08802 5.83311 4.35187L5.51115 4.08739L5.28418 4.3648L7.73088 7.08335H12.2687L14.7154 4.3648L14.4884 4.08739L14.1664 4.35187Z" fill="#333333"/>
<path d="M11.8341 12.8933C11.8341 13.3083 11.6991 13.6533 11.4291 13.9283C11.1591 14.1983 10.8016 14.3608 10.3566 14.4158V14.8396C10.3566 14.9742 10.2475 15.0833 10.1129 15.0833C9.97828 15.0833 9.86912 14.9741 9.86912 14.8396V14.4233C9.45412 14.3983 9.09912 14.2858 8.80412 14.0858C8.60853 13.9532 8.4492 13.7887 8.32618 13.5925C8.21536 13.4156 8.29938 13.1919 8.4802 13.0877C8.70595 12.9578 8.98778 13.0715 9.17053 13.2571C9.34628 13.4356 9.5792 13.5419 9.86912 13.5758V12.0158C9.43912 11.8508 9.10662 11.6808 8.87162 11.5058C8.56162 11.2658 8.40662 10.9183 8.40662 10.4633C8.40662 10.0483 8.54662 9.70831 8.82662 9.44331C9.10162 9.18331 9.44912 9.03331 9.86912 8.99331V8.57706C9.86912 8.44248 9.97828 8.33331 10.1129 8.33331C10.2475 8.33331 10.3566 8.44248 10.3566 8.57706V9.00081C10.8911 9.07315 11.2965 9.30865 11.5725 9.70723C11.6917 9.87923 11.614 10.1077 11.4328 10.2124C11.2172 10.3369 10.9488 10.2262 10.7635 10.0598C10.6515 9.95923 10.516 9.89123 10.3566 9.85581V11.3408C10.5466 11.4158 10.6666 11.4633 10.7166 11.4833C11.0166 11.6033 11.2341 11.7258 11.3691 11.8508C11.7041 12.1358 11.8591 12.4833 11.8341 12.8933ZM9.26912 10.4633C9.26912 10.6133 9.31412 10.7383 9.40412 10.8383C9.49412 10.9383 9.64912 11.0408 9.86912 11.1458V9.84081C9.68412 9.87081 9.53662 9.94081 9.42662 10.0508C9.32162 10.1608 9.26912 10.2983 9.26912 10.4633ZM10.3566 12.2033V13.5683C10.5516 13.5283 10.7016 13.4483 10.8066 13.3283C10.9166 13.2083 10.9716 13.0658 10.9716 12.9008C10.9716 12.7408 10.9241 12.6083 10.8291 12.5033C10.7341 12.3983 10.5766 12.2983 10.3566 12.2033Z" fill="#333333"/>
</svg>
