<svg width="24" height="24" viewBox="0 0 24 24" fill="none" xmlns="http://www.w3.org/2000/svg">
<path fill-rule="evenodd" clip-rule="evenodd" d="M18 5.4375H6C5.44772 5.4375 5 5.85724 5 6.375V17.625C5 18.1428 5.44772 18.5625 6 18.5625H18C18.5523 18.5625 19 18.1428 19 17.625V6.375C19 5.85724 18.5523 5.4375 18 5.4375ZM6 4.5C4.89543 4.5 4 5.33947 4 6.375V17.625C4 18.6606 4.89543 19.5 6 19.5H18C19.1046 19.5 20 18.6606 20 17.625V6.375C20 5.33947 19.1046 4.5 18 4.5H6Z" fill="#333333"/>
<path fill-rule="evenodd" clip-rule="evenodd" d="M10.96 16.6875L7.66045 14.1532C7.29044 13.869 7.22303 13.3628 7.50717 13.0021C7.81691 12.6088 8.41759 12.5448 8.81359 12.8628L10.6577 14.3438L10.96 16.6875Z" fill="#333333"/>
<path fill-rule="evenodd" clip-rule="evenodd" d="M17.3613 7.90088C17.7192 8.19851 17.7656 8.70686 17.4669 9.05719L10.96 16.6875L10.6577 14.3438L16.0631 8.00507C16.3843 7.62844 16.9765 7.58091 17.3613 7.90088Z" fill="#333333"/>
</svg>
