<svg width="24" height="24" viewBox="0 0 24 24" fill="none" xmlns="http://www.w3.org/2000/svg">
<path d="M6.873 9.52749C6.69674 9.07441 6.54107 8.60988 6.50003 8.12766C6.21867 4.82174 8.45114 2.5 12 2.5C15.5098 2.5 17.8428 4.86661 17.6294 8.12766C17.5931 8.68275 17.405 9.21553 17.19 9.73176L14.8514 16.2105H8.95048L6.873 9.52749Z" fill="#FFE1E1"/>
<path d="M8.95048 16.2105H14.8514V19.0526C14.8514 19.5758 14.0432 20 13.5 20H9.93397C9.3908 20 8.95048 19.5758 8.95048 19.0526L8.95048 16.2105Z" fill="#FFE1E1"/>
<path d="M10 20H13.6321C13.6321 21.1046 13.1046 21.5 12 21.5C10.8954 21.5 10 21.1046 10 20Z" fill="#FFE1E1"/>
<path fill-rule="evenodd" clip-rule="evenodd" d="M6.02008 8.4764C5.73864 5.04314 8.45041 2 12 2C15.5106 2 18.2015 4.97658 17.9881 8.36321C17.9498 8.97145 17.7526 9.53842 17.5502 10.0431L15.0899 16.1787V18.8182C15.0899 19.4242 14.6946 19.9379 14.1479 20.1154C13.9637 21.1857 13.0312 22 11.9084 22C10.7857 22 9.85312 21.1857 9.66897 20.1154C9.12222 19.9379 8.72697 19.4242 8.72697 18.8182V16.1733L6.39217 9.94203C6.22617 9.49899 6.06337 9.0046 6.02008 8.4764ZM9.63596 16.5455V18.8182C9.63596 19.0692 9.83944 19.2727 10.0904 19.2727H13.7264C13.9774 19.2727 14.1809 19.0692 14.1809 18.8182V16.5455H9.63596ZM14.328 15.6364L16.7066 9.70472C16.9015 9.21866 17.0521 8.76313 17.0809 8.30603C17.2619 5.43408 14.9773 2.90909 12 2.90909C8.98949 2.90909 6.68736 5.49067 6.92602 8.40212C6.95859 8.7994 7.08355 9.19653 7.24336 9.62303L9.49651 15.6364H14.328ZM10.6225 20.1818C10.8097 20.7115 11.3148 21.0909 11.9084 21.0909C12.5021 21.0909 13.0071 20.7115 13.1943 20.1818H10.6225ZM12.4109 4.06945C12.5232 3.84491 12.7962 3.7539 13.0207 3.86617C14.2887 4.50025 15.3169 5.52855 15.9509 6.79672C16.0631 7.02126 15.9721 7.29429 15.7476 7.40656C15.5231 7.51883 15.2501 7.42781 15.1379 7.20328C14.5918 6.11104 13.7063 5.2254 12.6142 4.67929C12.3896 4.56702 12.2986 4.29398 12.4109 4.06945Z" fill="#FF6A6A"/>
</svg>
