<svg width="20" height="20" viewBox="0 0 20 20" fill="none" xmlns="http://www.w3.org/2000/svg">
<path d="M10 12.7007L15.9487 18.6494C16.6945 19.3951 17.9036 19.3951 18.6494 18.6494C19.3951 17.9036 19.3951 16.6945 18.6494 15.9487L12.7007 10L18.6497 4.05104C19.3954 3.30527 19.3954 2.09615 18.6497 1.35038C17.9039 0.604615 16.6948 0.604615 15.949 1.35038L10 7.29937L4.05098 1.35033C3.30522 0.604562 2.09609 0.604562 1.35033 1.35033C0.604562 2.09609 0.604563 3.30522 1.35033 4.05098L7.29937 10L1.35062 15.9488C0.604852 16.6945 0.604851 17.9037 1.35062 18.6494C2.09638 19.3952 3.30551 19.3952 4.05127 18.6494L10 12.7007Z" fill="#333333"/>
</svg>
