<svg width="24" height="24" viewBox="0 0 24 24" fill="none" xmlns="http://www.w3.org/2000/svg">
<path fill-rule="evenodd" clip-rule="evenodd" d="M18 5.4375H6C5.44772 5.4375 5 5.85723 5 6.375V17.625C5 18.1428 5.44772 18.5625 6 18.5625H18C18.5523 18.5625 19 18.1428 19 17.625V6.375C19 5.85723 18.5523 5.4375 18 5.4375ZM6 4.5C4.89543 4.5 4 5.33946 4 6.375V17.625C4 18.6605 4.89543 19.5 6 19.5H18C19.1046 19.5 20 18.6605 20 17.625V6.375C20 5.33946 19.1046 4.5 18 4.5H6Z" fill="#333333"/>
<path d="M13.0788 13.0697C12.8469 13.4253 12.4896 13.7831 12.045 13.7831C11.6004 13.7831 11.2246 13.4348 11.3774 13.0435C11.4099 12.9604 11.4481 12.8788 11.492 12.7987C11.66 12.4837 11.8653 12.2168 12.108 11.9981C12.3507 11.7706 12.5933 11.5563 12.836 11.355C13.0787 11.145 13.284 10.9175 13.452 10.6725C13.62 10.4275 13.704 10.1781 13.704 9.92436C13.704 9.56561 13.5687 9.28562 13.298 9.08437C13.0273 8.88311 12.6633 8.78249 12.206 8.78249C11.7673 8.78249 11.3893 8.88749 11.072 9.09749C10.9992 9.14568 10.931 9.19847 10.8676 9.25587C10.5205 9.56966 9.99782 9.78413 9.57816 9.56159C9.24603 9.38546 9.09227 9.00086 9.2982 8.69969C9.53987 8.34625 9.8558 8.05448 10.246 7.82437C10.834 7.48312 11.5013 7.31249 12.248 7.31249C13.088 7.31249 13.8067 7.53562 14.404 7.98187C15.0107 8.42812 15.314 9.04499 15.314 9.83249C15.314 10.1913 15.23 10.5325 15.062 10.8562C14.894 11.18 14.6887 11.4556 14.446 11.6831C14.2033 11.9106 13.9607 12.1338 13.718 12.3525C13.4753 12.5625 13.27 12.79 13.102 13.035C13.0941 13.0465 13.0863 13.058 13.0788 13.0697ZM12.052 14.8594C12.3413 14.8594 12.5887 14.9556 12.794 15.1481C12.9993 15.3406 13.102 15.5725 13.102 15.8437C13.102 16.1149 12.9993 16.3469 12.794 16.5393C12.5887 16.7318 12.3413 16.8281 12.052 16.8281C11.7627 16.8281 11.5153 16.7318 11.31 16.5393C11.1047 16.3469 11.002 16.1149 11.002 15.8437C11.002 15.5725 11.1 15.3406 11.296 15.1481C11.5013 14.9556 11.7533 14.8594 12.052 14.8594Z" fill="#333333"/>
</svg>
