<svg width="24" height="24" viewBox="0 0 24 24" fill="none" xmlns="http://www.w3.org/2000/svg">
<path fill-rule="evenodd" clip-rule="evenodd" d="M18 5H6C5.44772 5 5 5.44772 5 6V18C5 18.5523 5.44772 19 6 19H18C18.5523 19 19 18.5523 19 18V6C19 5.44772 18.5523 5 18 5ZM6 4C4.89543 4 4 4.89543 4 6V18C4 19.1046 4.89543 20 6 20H18C19.1046 20 20 19.1046 20 18V6C20 4.89543 19.1046 4 18 4H6Z" fill="#333333"/>
<path fill-rule="evenodd" clip-rule="evenodd" d="M8 9.25C8 8.83579 8.33579 8.5 8.75 8.5H15.25C15.6642 8.5 16 8.83579 16 9.25C16 9.66421 15.6642 10 15.25 10H8.75C8.33579 10 8 9.66421 8 9.25Z" fill="#333333"/>
<path fill-rule="evenodd" clip-rule="evenodd" d="M8 12.25C8 11.8358 8.33579 11.5 8.75 11.5H15.25C15.6642 11.5 16 11.8358 16 12.25C16 12.6642 15.6642 13 15.25 13H8.75C8.33579 13 8 12.6642 8 12.25Z" fill="#333333"/>
<path fill-rule="evenodd" clip-rule="evenodd" d="M8 15.25C8 14.8358 8.33579 14.5 8.75 14.5H15.25C15.6642 14.5 16 14.8358 16 15.25C16 15.6642 15.6642 16 15.25 16H8.75C8.33579 16 8 15.6642 8 15.25Z" fill="#333333"/>
</svg>
