<svg width="24" height="24" viewBox="0 0 24 24" fill="none" xmlns="http://www.w3.org/2000/svg">
<path fill-rule="evenodd" clip-rule="evenodd" d="M18 9.00013H6C5.44772 9.00013 5 9.44784 5 10.0001V18.0001C5 18.5524 5.44772 19.0001 6 19.0001H18C18.5523 19.0001 19 18.5524 19 18.0001V10.0001C19 9.44784 18.5523 9.00013 18 9.00013ZM6 8.00013C4.89543 8.00013 4 8.89556 4 10.0001V18.0001C4 19.1047 4.89543 20.0001 6 20.0001H18C19.1046 20.0001 20 19.1047 20 18.0001V10.0001C20 8.89556 19.1046 8.00013 18 8.00013H6Z" fill="#333333"/>
<path fill-rule="evenodd" clip-rule="evenodd" d="M15.7818 6.4837L11 8.00013L17.5 8.50015L17.0065 7.19081C16.8636 6.65734 16.3152 6.34076 15.7818 6.4837ZM7.5 8.00012V8.50013C8.56693 8.21424 18.5 8.50015 18.5 8.50015L17.9725 6.93199C17.6866 5.86505 16.5899 5.23189 15.523 5.51777L7.5 8.00012Z" fill="#333333"/>
<path fill-rule="evenodd" clip-rule="evenodd" d="M11.4746 5.04759L7.5 8.00012L13.8035 6.31039L12.8718 5.26644C12.5464 4.82019 11.9209 4.72221 11.4746 5.04759ZM6 8.00013L8.49995 8.50014L14.7365 5.95043L13.6798 4.67728C13.029 3.78477 11.778 3.58881 10.8855 4.23958L6 8.00013Z" fill="#333333"/>
<path d="M14.201 15.4721C14.201 15.9701 14.039 16.3841 13.715 16.7141C13.391 17.0381 12.962 17.2331 12.428 17.2991V17.8076C12.428 17.9692 12.297 18.1001 12.1355 18.1001C11.974 18.1001 11.843 17.9691 11.843 17.8076V17.3081C11.345 17.2781 10.919 17.1431 10.565 16.9031C10.3303 16.744 10.1391 16.5466 9.99147 16.3111C9.85849 16.0989 9.95932 15.8304 10.1763 15.7054C10.4472 15.5495 10.7854 15.6859 11.0047 15.9086C11.2156 16.1229 11.4951 16.2504 11.843 16.2911V14.4191C11.327 14.2211 10.928 14.0171 10.646 13.8071C10.274 13.5191 10.088 13.1021 10.088 12.5561C10.088 12.0581 10.256 11.6501 10.592 11.3321C10.922 11.0201 11.339 10.8401 11.843 10.7921V10.2926C11.843 10.1311 11.974 10.0001 12.1355 10.0001C12.297 10.0001 12.428 10.1311 12.428 10.2926V10.8011C13.0694 10.8879 13.5558 11.1705 13.8871 11.6488C14.0301 11.8552 13.9369 12.1294 13.7194 12.255C13.4607 12.4044 13.1386 12.2716 12.9163 12.0719C12.7819 11.9512 12.6192 11.8696 12.428 11.8271V13.6091C12.656 13.6991 12.8 13.7561 12.86 13.7801C13.22 13.9241 13.481 14.0711 13.643 14.2211C14.045 14.5631 14.231 14.9801 14.201 15.4721ZM11.123 12.5561C11.123 12.7361 11.177 12.8861 11.285 13.0061C11.393 13.1261 11.579 13.2491 11.843 13.3751V11.8091C11.621 11.8451 11.444 11.9291 11.312 12.0611C11.186 12.1931 11.123 12.3581 11.123 12.5561ZM12.428 14.6441V16.2821C12.662 16.2341 12.842 16.1381 12.968 15.9941C13.1 15.8501 13.166 15.6791 13.166 15.4811C13.166 15.2891 13.109 15.1301 12.995 15.0041C12.881 14.8781 12.692 14.7581 12.428 14.6441Z" fill="#333333"/>
</svg>
