<svg width="24" height="24" viewBox="0 0 24 24" fill="none" xmlns="http://www.w3.org/2000/svg">
<path d="M15.5 7.3125C15.5 9.12469 13.933 10.5938 12 10.5938C10.067 10.5938 8.5 9.12469 8.5 7.3125C8.5 5.50031 10.067 4.03125 12 4.03125C13.933 4.03125 15.5 5.50031 15.5 7.3125ZM12.0097 12.4688C12.7092 12.4688 14.444 12.4687 16.8582 13.8183C18.6454 14.8173 19.5 16.8098 19.5 18.8785C19.5 19.4807 18.9794 19.9688 18.3371 19.9688H5.66288C5.02064 19.9688 4.5 19.4807 4.5 18.8785C4.5 16.8098 5.35462 14.8173 7.14178 13.8183C9.556 12.4687 11.2908 12.4688 11.9903 12.4688H12H12.0097Z" stroke="#333333"/>
</svg>
