<svg width="24" height="24" viewBox="0 0 24 24" fill="none" xmlns="http://www.w3.org/2000/svg">
<path fill-rule="evenodd" clip-rule="evenodd" d="M14.96 18.562L11.6605 16.0278C11.2904 15.7436 11.223 15.2374 11.5072 14.8766C11.8169 14.4833 12.4176 14.4193 12.8136 14.7373L14.6577 16.2183L14.96 18.562Z" fill="#333333"/>
<path fill-rule="evenodd" clip-rule="evenodd" d="M21.3613 9.7754C21.7192 10.073 21.7656 10.5814 21.4669 10.9317L14.96 18.562L14.6577 16.2183L20.0631 9.87958C20.3843 9.50296 20.9765 9.45543 21.3613 9.7754Z" fill="#333333"/>
<path fill-rule="evenodd" clip-rule="evenodd" d="M12 4.49951C10.3431 4.49951 9 5.75871 9 7.31202C9 8.86532 10.3431 10.1245 12 10.1245C13.6569 10.1245 15 8.86532 15 7.31202C15 5.75871 13.6569 4.49951 12 4.49951ZM8 7.31202C8 5.24094 9.79086 3.56201 12 3.56201C14.2091 3.56201 16 5.24094 16 7.31202C16 9.38309 14.2091 11.062 12 11.062C9.79086 11.062 8 9.38309 8 7.31202ZM11.98 12.937C11.3232 12.937 9.69382 12.9369 7.39786 14.2204C5.81174 15.107 5 16.9118 5 18.8781C5 19.2213 5.29678 19.4995 5.66288 19.4995H18.3371C18.7033 19.4995 19 19.2213 19 18.8781C19 16.9118 18.1883 15.107 16.6021 14.2204C14.3062 12.9369 12.6768 12.937 12.02 12.937H11.98ZM6.8857 13.4152C9.40608 12.0062 11.2413 11.9995 11.9903 11.9995H12.0097C12.7587 11.9995 14.5939 12.0062 17.1143 13.4152C19.1025 14.5266 20 16.707 20 18.8781C20 19.7391 19.2555 20.437 18.3371 20.437H5.66288C4.7445 20.437 4 19.7391 4 18.8781C4 16.707 4.89751 14.5266 6.8857 13.4152Z" fill="#333333"/>
</svg>
